<svg id="Layer_1" data-name="Layer 1" xmlns="http://www.w3.org/2000/svg" viewBox="0 0 2000 2000"><defs><style>.cls-1{fill:#00ceff;}.cls-2{fill:#fff;}.cls-3{fill:#2a2f39;}</style></defs><path class="cls-1" d="M759.42,789.48v345c7.33,2.45,14.59,5.1,22.22,6.47,13,1.56,25.68,3.27,38.43,6.46,11.16,2.79,22.25,5.82,33.59,7.73,15.88,1.4,31.85-.25,47.68,2.41,8.35,1.39,16.48,3.8,24.64,6,8.9.86,17.81,1.64,26.73,2.17,8.28.5,16.66.32,24.91,1.23,4.1.46,8.17,1.07,12.23,1.74l-1-422.95c-14.64,4.69-29.8,5-44.89,6.67-17.87,2.86-35,8.78-52.46,13.37-19.57,5.15-39.75,5.18-59.73,7.44-15.7,2.55-30.69,8.11-46.22,11.47h0l-.69.16c-2.28.48-4.56.92-6.87,1.29C771.78,787.17,765.6,788.34,759.42,789.48Zm17.16,12.43L861,879.36v6.75l-83.67-77.29-1.53-2.17v-4.58Zm198.48,271.84-86.82-80.21-5.44-7.72v-3.54L975,1067h0Zm-.32-132.52L882.8,851.54v-13.6l91.9,87.74h0ZM882.8,820.85l91.85,84.32,0,4.54v0L882.8,826.28Zm92.11,192.71.06,21.68-72.28-59.93h23.54Zm.25,98.84-92.36-84.1v-6.42l92.34,83.73ZM861,1009.21v21.52l-66.84-55.42H817.8Zm0,59.71-84.29-77.86-.91-1.29V984l85.2,78.21Zm-85.2-210.66L861,939.61v13.85h-1.7L775.75,872ZM861,826.49V848l-61-50.54,19.3-3.68Zm22.37-44.92,91.24,83.75,0,6.77-83.25-76.9-8.53-12.11v-1.42Zm91.11,30.84.05,21.51-68-56.41,19.27-3.38ZM882.8,1052.92v-13.67l92.39,88.21,0,15.62Zm-107,1.93v-13.76l85.2,81.34v13.89l-2-.27Zm0-31.14,84.79,77.84-.81,6-84-77.58Zm0-182.8L861,919.13v1.76l-.6,4.47-84.6-78.16Z"/><polygon class="cls-2" points="986.91 822.21 974.43 812.41 974.48 833.92 978.84 837.53 986.91 822.21"/><polygon class="cls-2" points="898.59 770.99 906.45 777.51 925.72 774.13 924.8 773.41 898.59 770.99"/><polygon class="cls-2" points="982.07 872.21 974.56 865.32 974.58 872.09 981.26 878.26 982.07 872.21"/><polygon class="cls-2" points="882.8 783.08 882.8 781.66 883.32 781.57 878.83 777.45 882.8 783.08"/><polygon class="cls-2" points="975.21 905.68 974.65 905.17 974.67 909.71 975.21 905.68"/><polygon class="cls-2" points="871.98 810.92 882.8 826.28 882.8 820.85 871.98 810.92"/><polygon class="cls-2" points="982.47 933.1 974.7 925.69 974.74 941.23 980.05 946.41 982.47 933.1"/><polygon class="cls-2" points="875.61 831.08 881.25 850.03 882.8 851.54 882.8 837.94 875.61 831.08"/><polygon class="cls-2" points="872.85 835.84 860.95 826.49 860.95 847.99 864.79 851.17 872.85 835.84"/><polygon class="cls-2" points="784.54 784.63 784.84 784.88 800 797.45 819.3 793.77 810.75 787.05 785.54 784.72 785.53 784.72 784.54 784.63"/><polygon class="cls-2" points="868.02 885.85 860.95 879.36 860.95 886.11 867.21 891.89 868.02 885.85"/><polygon class="cls-2" points="775.75 806.65 775.75 802.07 776.58 801.91 764.78 791.08 775.75 806.65"/><polygon class="cls-2" points="861.16 919.32 860.95 919.13 860.95 920.89 861.16 919.32"/><polygon class="cls-2" points="757.93 824.55 759.42 826.66 770.43 842.29 775.75 847.2 775.75 840.91 759.42 825.92 757.93 824.55"/><polygon class="cls-2" points="860.95 953.46 859.25 953.46 866 960.04 868.42 946.74 860.95 939.61 860.95 953.46"/><polygon class="cls-2" points="761.56 844.71 767.2 863.67 775.75 872.01 775.75 858.26 761.56 844.71"/><polygon class="cls-2" points="983.81 1020.55 974.91 1013.56 974.97 1035.24 975.74 1035.88 983.81 1020.55"/><polygon class="cls-2" points="895.49 969.34 902.69 975.31 926.23 975.31 921.71 971.76 895.49 969.34"/><polygon class="cls-2" points="978.97 1070.56 975.04 1066.96 975.06 1073.75 978.16 1076.61 978.97 1070.56"/><polygon class="cls-2" points="875.73 975.79 882.8 985.82 882.8 982.28 875.73 975.79"/><polygon class="cls-2" points="976.97 1107.27 975.14 1105.61 975.16 1112.4 976.16 1113.31 976.97 1107.27"/><polygon class="cls-2" points="868.88 1009.26 881.38 1027.01 882.8 1028.3 882.8 1021.88 868.88 1009.26"/><polygon class="cls-2" points="979.37 1131.45 975.19 1127.46 975.23 1143.08 976.95 1144.76 979.37 1131.45"/><polygon class="cls-2" points="872.51 1029.43 878.15 1048.38 882.8 1052.92 882.8 1039.25 872.51 1029.43"/><polygon class="cls-2" points="872.24 1018.08 860.95 1009.21 860.95 1030.73 864.17 1033.4 872.24 1018.08"/><polygon class="cls-2" points="783.92 966.86 794.11 975.31 817.8 975.31 810.13 969.28 783.92 966.86"/><polygon class="cls-2" points="867.4 1068.08 860.95 1062.16 860.95 1068.92 866.59 1074.13 867.4 1068.08"/><polygon class="cls-2" points="764.16 973.31 775.75 989.77 775.75 983.95 764.16 973.31"/><polygon class="cls-2" points="757.31 1006.78 759.42 1009.78 769.81 1024.53 775.75 1030.02 775.75 1023.71 759.42 1008.72 757.31 1006.78"/><polygon class="cls-2" points="860.95 1136.32 858.99 1136.05 865.38 1142.28 867.8 1128.97 860.95 1122.43 860.95 1136.32"/><polygon class="cls-2" points="760.94 1026.95 766.58 1045.9 775.75 1054.85 775.75 1041.09 760.94 1026.95"/><path class="cls-3" d="M753.9,784v359.51l243.26,32.77L996.1,739.2Zm21.85,191.31H861v161l-2-.27-83.24-11.57Zm150-201.18,48.6-8.53.11,46.81.05,21.51.08,31.4,0,6.77.07,33.08,0,4.54v0l0,15.93h0l0,15.54,0,12.23h-92V781.66l.52-.09,23.13-4.06ZM819.3,793.77,861,785.83V953.46h-85.2V802.07l.83-.16L800,797.45Zm156,357.41-92.45-11.83v-164h92l.09,38.25.06,21.68L975,1067h0l0,6.79.08,31.86,0,6.79,0,15.06,0,15.62Z"/><path class="cls-3" d="M1005.56,1176.28l243.25-32.78V784l-242.2-44.79Zm26-29.63.9-376.34,190.49,35.23v315.32Z"/><circle class="cls-1" cx="1184.21" cy="971.45" r="24.79"/><path class="cls-3" d="M1286,757.45c-11.27-7.33-22.72-14.3-34.22-21.16-5.74-3.45-11.53-6.79-17.3-10.18l-17.39-10c-23.24-13.21-46.69-26-70.27-38.44s-47.33-24.61-71.2-36.5-47.86-23.48-72-34.84l-7-3.27-6.91,3.3C942.64,628.88,896,652.29,849.92,677c-23,12.38-45.92,25-68.61,38-11.33,6.55-22.64,13.15-33.86,19.94s-22.4,13.65-33.4,20.89c12.55-4,24.92-8.36,37.25-12.82s24.58-9.08,36.8-13.77c24.43-9.42,48.63-19.3,72.72-29.4C909,679.53,956.53,658,1003.66,635.57l-13.87,0q36.15,17.08,72.65,33.4c24.35,10.86,48.8,21.5,73.44,31.74s49.38,20.27,74.35,29.81l18.77,7.06c6.29,2.3,12.55,4.65,18.86,6.87C1260.47,749,1273.13,753.41,1286,757.45Z"/><rect class="cls-1" x="998.08" y="665.68" width="16.9" height="16.9" transform="translate(2013.06 1348.26) rotate(-180)"/><rect class="cls-1" x="977.38" y="665.68" width="16.9" height="16.9" transform="translate(1971.65 1348.26) rotate(-180)"/><rect class="cls-1" x="998.08" y="686.39" width="16.9" height="16.9" transform="translate(2013.06 1389.67) rotate(-180)"/><rect class="cls-1" x="977.38" y="686.39" width="16.9" height="16.9" transform="translate(1971.65 1389.67) rotate(-180)"/><path class="cls-1" d="M542.61,1241.14a38.48,38.48,0,0,1,15.72,15.11,47.89,47.89,0,0,1,0,44.83,38.2,38.2,0,0,1-15.78,15.16q-10.21,5.38-23.67,5.39H486.72v-85.87h32.16Q532.47,1235.76,542.61,1241.14ZM536,1297q6.6-6.48,6.6-18.35t-6.6-18.47q-6.62-6.6-18.47-6.6h-9.91v49.9h9.91Q529.41,1303.52,536,1297Z"/><path class="cls-1" d="M594,1316.86a42.12,42.12,0,0,1-16-15.72,46.26,46.26,0,0,1,0-45.32,42.3,42.3,0,0,1,16-15.65,46.58,46.58,0,0,1,44.4,0,41.38,41.38,0,0,1,15.91,15.65,46.85,46.85,0,0,1-.07,45.32,41.67,41.67,0,0,1-15.9,15.72,46.54,46.54,0,0,1-44.34,0Zm38.66-20.31q6.16-6.84,6.17-18.1t-6.17-18.16q-6.18-6.8-16.46-6.79t-16.57,6.72q-6.18,6.73-6.18,18.23t6.18,18.16q6.18,6.8,16.57,6.79T632.7,1296.55Z"/><path class="cls-1" d="M692.32,1235.76v51.37q0,7.71,3.79,11.87t11.14,4.16q7.34,0,11.25-4.16t3.91-11.87v-51.37h20.92V1287q0,11.51-4.89,19.45a31.41,31.41,0,0,1-13.15,12,41.38,41.38,0,0,1-18.41,4,40.34,40.34,0,0,1-18.17-4,29.58,29.58,0,0,1-12.65-12q-4.65-8-4.65-19.51v-51.25Z"/><path class="cls-1" d="M822,1285a21,21,0,0,1,4.53,13.27q0,10.77-7.52,17.07t-21,6.3H758v-85.87h38.66q13.08,0,20.48,6t7.4,16.26a19.64,19.64,0,0,1-4,12.6,20.5,20.5,0,0,1-10.58,7A20,20,0,0,1,822,1285Zm-43.05-14.49h13.7q5.13,0,7.89-2.26t2.75-6.67a8.33,8.33,0,0,0-2.75-6.73c-1.84-1.54-4.47-2.32-7.89-2.32h-13.7Zm23.55,31.86a8.48,8.48,0,0,0,2.87-6.91,8.84,8.84,0,0,0-3-7.09c-2-1.72-4.75-2.57-8.25-2.57H778.92v19h15.41Q799.6,1304.75,802.47,1302.36Z"/><path class="cls-1" d="M859.52,1305.48h27.4v16.15H838.61v-85.87h20.91Z"/><path class="cls-1" d="M917.87,1252.52v17.37h28V1286h-28v18.84h31.68v16.76H897v-85.87h52.6v16.76Z"/><path class="cls-1" d="M1046.05,1262.92a15.62,15.62,0,0,0-6.67-6.55,21.78,21.78,0,0,0-10.21-2.26q-10.16,0-16.27,6.67t-6.11,17.79q0,11.87,6.42,18.53t17.67,6.67a21.32,21.32,0,0,0,13-3.92,22.19,22.19,0,0,0,7.77-11.25h-26.55v-15.41h45.5v19.45a41.1,41.1,0,0,1-7.88,14.55,41.72,41.72,0,0,1-14.13,10.89,43.71,43.71,0,0,1-19.33,4.16,45.77,45.77,0,0,1-22.69-5.57,39.63,39.63,0,0,1-15.53-15.47,48.88,48.88,0,0,1,0-45.32,39.69,39.69,0,0,1,15.47-15.53,45.43,45.43,0,0,1,22.63-5.57q15.4,0,26,7.46a35.29,35.29,0,0,1,14,20.68Z"/><path class="cls-1" d="M1103.17,1305.48h27.4v16.15h-48.32v-85.87h20.92Z"/><path class="cls-1" d="M1194.05,1306.46h-32l-5.14,15.17H1135l31.07-85.87h24.22l31.06,85.87h-22.14Zm-5.38-16.15L1178,1258.88l-10.52,31.43Z"/><path class="cls-1" d="M1253,1304.5h36.94v17.13h-60.67v-15.9l36.7-52.84h-36.7v-17.13h60.67v15.9Z"/><path class="cls-1" d="M1324.56,1235.76v85.87h-20.92v-85.87Z"/><path class="cls-1" d="M1416.53,1321.63h-20.91l-35-53v53h-20.92v-85.87h20.92l35,53.21v-53.21h20.91Z"/><path class="cls-1" d="M1488.7,1262.92a15.62,15.62,0,0,0-6.67-6.55,21.78,21.78,0,0,0-10.21-2.26q-10.15,0-16.27,6.67t-6.11,17.79q0,11.87,6.42,18.53t17.67,6.67a21.32,21.32,0,0,0,13-3.92,22.19,22.19,0,0,0,7.77-11.25h-26.55v-15.41h45.5v19.45a41.1,41.1,0,0,1-7.88,14.55,41.63,41.63,0,0,1-14.13,10.89,43.71,43.71,0,0,1-19.33,4.16,45.77,45.77,0,0,1-22.69-5.57,39.63,39.63,0,0,1-15.53-15.47,48.88,48.88,0,0,1,0-45.32,39.69,39.69,0,0,1,15.47-15.53,45.43,45.43,0,0,1,22.63-5.57q15.4,0,26,7.46a35.29,35.29,0,0,1,14,20.68Z"/><path class="cls-3" d="M773,1387.36h15.44v9.1H761.24v-48.4H773Z"/><path class="cls-3" d="M805.92,1357.51v9.79h15.79v9.1H805.92V1387h17.85v9.45H794.13v-48.4h29.64v9.45Z"/><path class="cls-3" d="M843.22,1348.06v48.4H831.43v-48.4Z"/><path class="cls-3" d="M852.87,1359.4a22.19,22.19,0,0,1,8.65-8.75,25,25,0,0,1,12.58-3.14,24.1,24.1,0,0,1,14.76,4.55,21.79,21.79,0,0,1,8.2,12.41h-13a10.46,10.46,0,0,0-4.1-4.62,11.51,11.51,0,0,0-6-1.59,11.25,11.25,0,0,0-8.83,3.8q-3.37,3.8-3.38,10.13t3.38,10.14a11.25,11.25,0,0,0,8.83,3.79,11.51,11.51,0,0,0,6-1.59,10.35,10.35,0,0,0,4.1-4.62h13a21.66,21.66,0,0,1-8.2,12.38,24.22,24.22,0,0,1-14.76,4.52,25.15,25.15,0,0,1-12.58-3.14,22.25,22.25,0,0,1-8.65-8.72,27.87,27.87,0,0,1,0-25.55Z"/><path class="cls-3" d="M916.09,1357.51v9.79h15.79v9.1H916.09V1387H934v9.45H904.3v-48.4H934v9.45Z"/><path class="cls-3" d="M949.6,1395.22a15.56,15.56,0,0,1-6.72-5.1,13.92,13.92,0,0,1-2.66-8.14h12.55a6.14,6.14,0,0,0,1.86,4.1,6,6,0,0,0,4.14,1.42,6.44,6.44,0,0,0,4.14-1.21,4,4,0,0,0,1.51-3.34,4,4,0,0,0-1.2-3,10,10,0,0,0-3-1.93,48.22,48.22,0,0,0-5-1.72,54.76,54.76,0,0,1-7.65-2.9,14,14,0,0,1-5.1-4.27,11.91,11.91,0,0,1-2.14-7.38,12.67,12.67,0,0,1,4.9-10.58q4.89-3.83,12.75-3.83t12.9,3.83a13.73,13.73,0,0,1,5.24,10.65H963.39a5,5,0,0,0-1.72-3.69,6.07,6.07,0,0,0-4.07-1.34,5.1,5.1,0,0,0-3.45,1.13,4.12,4.12,0,0,0-1.31,3.28,4.06,4.06,0,0,0,2.21,3.65,35.68,35.68,0,0,0,6.89,2.83,64.7,64.7,0,0,1,7.62,3,14.64,14.64,0,0,1,5.07,4.21,11.3,11.3,0,0,1,2.14,7.1,14,14,0,0,1-2.11,7.52,14.66,14.66,0,0,1-6.1,5.37,20.79,20.79,0,0,1-9.44,2A24.89,24.89,0,0,1,949.6,1395.22Z"/><path class="cls-3" d="M1018.82,1348.06v9.45H1006v39H994.21v-39H981.38v-9.45Z"/><path class="cls-3" d="M1036.54,1357.51v9.79h15.79v9.1h-15.79V1387h17.86v9.45h-29.65v-48.4h29.65v9.45Z"/><path class="cls-3" d="M1086.73,1396.46l-10.06-18.27h-2.83v18.27h-11.79v-48.4h19.79a21.86,21.86,0,0,1,9.76,2,13.84,13.84,0,0,1,6,5.48,15.33,15.33,0,0,1,2,7.76,14.41,14.41,0,0,1-2.73,8.62,14.62,14.62,0,0,1-8,5.37l11.17,19.17Zm-12.89-26.61h7.31a6.68,6.68,0,0,0,4.86-1.59,6,6,0,0,0,1.62-4.48,5.78,5.78,0,0,0-1.62-4.34,6.68,6.68,0,0,0-4.86-1.59h-7.31Z"/><path class="cls-3" d="M1133.41,1387.36h15.44v9.1h-27.23v-48.4h11.79Z"/><path class="cls-3" d="M1189.33,1348.06v9.45H1176.5v39h-11.79v-39h-12.82v-9.45Z"/><path class="cls-3" d="M1226.76,1351.09a21.66,21.66,0,0,1,8.86,8.52,27,27,0,0,1,0,25.27,21.5,21.5,0,0,1-8.89,8.55,28.25,28.25,0,0,1-13.34,3h-18.14v-48.4h18.14A28.15,28.15,0,0,1,1226.76,1351.09ZM1223,1382.6q3.72-3.64,3.72-10.34t-3.72-10.41q-3.72-3.72-10.41-3.72H1207v28.13h5.59Q1219.32,1386.26,1223,1382.6Z"/><rect class="cls-1" x="488.58" y="1366.97" width="256.34" height="12.26"/><rect class="cls-1" x="1254.54" y="1366.97" width="256.34" height="12.26"/></svg>