<?xml version="1.0" encoding="utf-8"?>
<!-- Generator: Adobe Illustrator 16.0.0, SVG Export Plug-In . SVG Version: 6.00 Build 0)  -->
<!DOCTYPE svg PUBLIC "-//W3C//DTD SVG 1.1//EN" "http://www.w3.org/Graphics/SVG/1.1/DTD/svg11.dtd">
<svg version="1.1" xmlns="http://www.w3.org/2000/svg" xmlns:xlink="http://www.w3.org/1999/xlink" x="0px" y="0px"
	 width="6398.56px" height="3289.316px" viewBox="0 0 6398.56 3289.316" enable-background="new 0 0 6398.56 3289.316"
	 xml:space="preserve">
<g id="Layer_2">
</g>
<g id="Layer_3">
</g>
<g id="Layer_5">
	<path fill="#000C00" d="M1409.726,134.675l1233.986,285.963l16.691,48.222c0,0-6.978,27.914-39.544,74.437
		s-113.98,146.546-209.351,188.416s-258.2,60.479-260.526,53.501c-2.326-6.979-676.902-530.356-688.533-537.335
		c-11.631-6.979-79.088-44.196-79.088-44.196L1409.726,134.675z"/>
</g>
<g id="Layer_6">
	<path fill="#000C00" d="M3728.222,416.276l1232.718-282.379c0,0-2.325,65.132,0,72.11c2.326,6.979-58.152,19.526-93.045,69.079
		c-34.892,49.553-465.225,379.862-472.203,382.188c-6.978,2.326-218.655,151.198-225.634,146.546
		c-6.978-4.652-116.306-97.697-153.524-120.958c-37.218-23.262-234.938-111.654-244.242-118.633s-153.524-95.316-153.524-95.316
		L3728.222,416.276"/>
</g>
<g id="Layer_4">
	<path fill="#007C3E" d="M5914.65,1234.154v-155.851h310.147l-524.15-396.213V375.042h-281.461v96.144l-458.247-337.288
		l-774.599,583.857L3193.086,64.114L2185.874,717.755l-776.148-583.08L966.213,477.392V373.488H685.524v311.701L159.82,1078.304
		l310.151-0.776v158.176H288.534c-156.623,1.55-232.612,43.547-232.612,43.547h1792.665
		c187.639-6.078,252.775-46.645,252.775-46.645h-365.979l1467.008-947.51l1448.394,950.607h-375.278
		c124.057,48.072,210.904,43.425,210.904,43.425h1843.845C6220.154,1231.056,5914.65,1234.154,5914.65,1234.154z M1408.172,1238.807
		H598.685v-201.596l-137.246,1.549l956.042-730.402l648.211,490.039L1408.172,1238.807z M5795.246,1240.36h-811.035l-660.62-440.414
		l645.109-490.04l947.505,722.652h-120.959V1240.36z"/>
</g>
<g id="Layer_7">
</g>
<g id="Layer_8">
</g>
<g id="Layer_9">
	<g>
		<g>
			<path fill="#000C00" d="M1239.142,873.023h144.22V760.788h-144.22C1239.142,792.863,1239.142,833.394,1239.142,873.023z"/>
			<rect x="1409.53" y="760.788" fill="#000C00" width="142.475" height="112.235"/>
			<path fill="#000C00" d="M1409.53,731.712h142.475v-24.425c-4.652-59.312-41.861-93.036-41.87-93.045
				c-30.244-27.409-64.073-45.791-100.605-50.312V731.712z"/>
			<path fill="#000C00" d="M1383.361,902.101h-144.22c0,66.08,0,122.702,0,122.702h144.22V902.101z"/>
			<rect x="1409.53" y="902.101" fill="#000C00" width="142.475" height="122.702"/>
			<path fill="#000C00" d="M1383.361,731.712V563.054c-15.896,0.977-32.229,4.603-48.958,11.322
				c-48.376,19.436-95.262,68.975-95.262,123.606c0,0.073,0,13.099,0,33.729H1383.361z"/>
		</g>
	</g>
	<g>
		<g>
			<path fill="#000C00" d="M4838.628,873.023h144.22V760.788h-144.22C4838.628,792.863,4838.628,833.394,4838.628,873.023z"/>
			<rect x="5009.017" y="760.788" fill="#000C00" width="142.475" height="112.235"/>
			<path fill="#000C00" d="M5009.017,731.712h142.475v-24.425c-4.652-59.312-41.861-93.036-41.87-93.045
				c-30.248-27.409-64.068-45.791-100.604-50.312V731.712z"/>
			<path fill="#000C00" d="M4982.848,902.101h-144.22c0,66.08,0,122.702,0,122.702h144.22V902.101z"/>
			<rect x="5009.017" y="902.101" fill="#000C00" width="142.475" height="122.702"/>
			<path fill="#000C00" d="M4982.848,731.712V563.054c-15.893,0.977-32.229,4.603-48.958,11.322
				c-48.376,19.436-95.262,68.975-95.262,123.606c0,0.073,0,13.099,0,33.729H4982.848z"/>
		</g>
	</g>
	<g>
		<g>
			<path fill="#000C00" d="M2959.879,967.041h192.845v-146.15h-192.845C2959.879,862.656,2959.879,915.435,2959.879,967.041z"/>
			<rect x="3187.716" y="820.891" fill="#000C00" width="190.506" height="146.15"/>
			<path fill="#000C00" d="M3187.716,783.022h190.506v-31.807c-6.215-77.23-55.973-121.145-55.981-121.154
				c-40.453-35.695-85.667-59.63-134.524-65.518V783.022z"/>
			<path fill="#000C00" d="M3152.724,1004.913h-192.845c0,86.039,0,159.771,0,159.771h192.845V1004.913z"/>
			<rect x="3187.716" y="1004.913" fill="#000C00" width="190.506" height="159.771"/>
			<path fill="#000C00" d="M3152.724,783.022V563.399c-21.253,1.276-43.097,5.992-65.463,14.742
				c-64.687,25.306-127.382,89.819-127.382,160.962c0,0.096,0,17.055,0,43.919H3152.724z"/>
		</g>
	</g>
</g>
<g id="Layer_10">
	<path fill="#007C3E" d="M1053.052,3178.794h4292.471c0,0-102.349,29.463-144.22,46.522h-4014.89
		C1186.413,3225.316,1088.721,3188.099,1053.052,3178.794z"/>
</g>
<g id="Layer_11">
	<path fill="#1B1F23" d="M583.761,1883.029c0,54.314,6.556,141.407-15.919,189.166c-30.903,65.554-91.777,108.633-166.695,108.633
		c-34.646,0-53.378-3.749-84.281-18.732c-25.283-12.171-46.822-45.886-46.822-73.041c0-31.843,19.667-63.682,54.314-63.682
		c31.839,0,54.319,21.539,54.319,53.378c0,14.983-9.368,27.159-15.924,34.651c-4.68,6.556-12.171,13.111-11.235,24.347
		c1.872,18.731,39.331,19.668,50.57,19.668c50.566,0,61.806-42.144,61.806-84.286v-575.925h-100.2v-23.415h310.905v23.415h-90.837
		V1883.029z"/>
	<path fill="#1B1F23" d="M1359.242,1473.791v23.415h-93.645v393.315c0,93.648-17.795,139.535-56.19,174.182
		c-38.395,34.651-97.393,48.699-181.674,48.699c-66.49,0-126.424-20.604-165.754-49.635
		c-40.267-29.967-58.063-90.837-58.063-195.722v-370.84h-92.708v-23.415h305.29v23.415h-92.713v342.744
		c0,130.173-14.047,243.484,155.455,243.484c109.569,0,156.391-69.297,156.391-172.31v-413.919h-90.837v-23.415H1359.242z"/>
	<path fill="#1B1F23" d="M1388.631,2104.975h-15.919v-186.358h27.155c19.668,88.965,73.046,171.375,172.311,171.375
		c73.981,0,139.536-54.314,139.536-131.108c0-87.089-77.73-103.948-147.963-128.296c-18.727-6.556-37.458-13.111-56.186-18.727
		c-87.093-26.224-130.172-91.777-130.172-180.738c0-98.333,73.046-171.375,170.438-171.375c54.314,0,93.649,13.107,136.724,46.822
		l35.587-37.458h16.855v176.994h-29.967c-10.299-88.965-68.362-162.947-162.006-162.947c-59.934,0-116.125,44.015-116.125,106.757
		c0,72.109,49.635,79.602,107.697,95.521c23.411,6.557,42.138,13.107,58.058,17.792c18.732,5.62,42.143,12.176,61.811,21.539
		c78.661,37.459,106.756,99.265,106.756,183.546c0,117.996-76.79,205.09-197.598,205.09c-44.01,0-100.201-17.792-132.976-47.759
		L1388.631,2104.975z"/>
	<path fill="#1B1F23" d="M1893.332,2099.354v-23.411h98.329v-578.737c-132.044-6.556-172.311,57.122-189.17,176.99h-29.967
		l10.304-200.405h536.599l10.3,200.405h-29.031c-16.855-119.868-57.126-183.546-189.166-176.99v578.737h98.329v23.411H1893.332z"/>
	<path fill="#1B1F23" d="M2570.025,1473.791h257.532c103.013,0,153.579,12.176,202.273,42.143
		c97.397,59.934,144.22,158.263,144.22,270.639c0,108.633-50.565,221.009-148.899,275.323
		c-71.17,39.331-151.707,37.459-229.432,37.459h-225.693v-23.411h91.777v-578.737h-91.777V1473.791z M2781.671,2075.943
		c118.933,0,200.401,7.491,240.672-115.185c20.599-62.746,23.407-137.663,23.407-197.598c0-119.868-23.407-195.722-51.502-222.881
		c-38.395-37.459-104.885-43.074-212.577-43.074V2075.943z"/>
	<path fill="#1B1F23" d="M3201.391,1770.653c0-154.515,135.787-310.906,292.184-310.906c156.386,0,291.237,156.392,291.237,310.906
		c0,171.374-105.82,342.749-291.237,342.749C3308.147,2113.402,3201.391,1942.027,3201.391,1770.653z M3647.152,1671.389
		c0-33.716-4.688-65.555-14.047-93.649c-18.728-57.122-57.127-94.581-139.531-94.581c-83.35,0-123.621,37.459-140.477,94.581
		c-8.423,28.095-14.048,59.934-14.048,93.649v204.148c0,36.523,1.872,72.11,10.304,104.885
		c16.855,64.618,56.191,109.569,144.221,109.569c88.955,0,127.355-44.951,144.21-109.569c8.433-32.774,9.368-68.361,9.368-104.885
		V1671.389z"/>
	<path fill="#1B1F23" d="M4447.303,1473.791v23.415h-93.645v393.315c0,93.648-17.791,139.535-56.19,174.182
		c-38.39,34.651-97.389,48.699-181.674,48.699c-66.485,0-126.419-20.604-165.755-49.635
		c-40.271-29.967-58.063-90.837-58.063-195.722v-370.84h-92.708v-23.415h305.285v23.415h-92.708v342.744
		c0,130.173-14.048,243.484,155.459,243.484c109.564,0,156.387-69.297,156.387-172.31v-413.919h-90.837v-23.415H4447.303z"/>
	<path fill="#1B1F23" d="M4447.303,2099.354v-23.411h92.709v-578.737h-92.709v-23.415h287.494
		c103.013,0,250.977,15.924,250.977,150.775c0,95.517-98.334,136.723-178.866,148.895v1.876
		c91.772,6.556,200.401,54.314,200.401,161.07c0,82.409-57.118,126.424-122.676,147.964
		c-68.357,22.475-155.451,14.983-221.01,14.983H4447.303z M4659.88,1764.098h83.35c71.174,0,115.18-32.775,115.18-139.531
		c0-150.775-82.405-124.553-198.529-127.36V1764.098z M4659.88,2075.943h117.996c81.469,0,95.517-78.666,95.517-144.216
		c0-88.028-29.022-143.283-124.548-144.219h-88.965V2075.943z"/>
	<path fill="#1B1F23" d="M5036.058,2099.354v-23.411h92.718v-578.737h-92.718v-23.415h309.974v23.415h-97.388v578.737h122.676
		c118.932,0,161.075-79.602,164.818-187.294h29.031l-9.368,210.705H5036.058z"/>
	<path fill="#1B1F23" d="M5797.291,1497.206v268.768c89.9,0,137.668-14.048,142.348-114.253h26.223v261.275h-26.223
		c-8.433-103.948-41.207-126.424-142.348-123.611v286.559h132.979c121.739,0,147.963-72.11,167.626-177.931h27.16l-8.424,201.342
		h-532.855v-23.411h93.646v-578.737h-93.646v-23.415h517.872l5.615,168.566h-26.224c-19.662-89.901-55.245-124.553-103.012-137.659
		c-23.407-6.556-50.566-7.492-81.47-7.492H5797.291z"/>
</g>
<g id="Layer_12">
	<path fill="#1B1F23" d="M824.814,2476.068c-19.926-84.458-76.862-168.917-179.352-168.917
		c-176.508,0-167.967,162.274-167.967,301.77c0,125.266-18.027,313.159,155.632,313.159c131.903,0,116.72-99.642,116.72-197.385
		h-95.844v-23.725h297.026v23.725h-66.426c-1.899,139.499-106.284,221.109-241.04,221.109c-107.233,0-169.861-36.06-238.187-117.669
		C356.028,2769.296,338,2690.535,338,2615.567c0-87.307,32.261-164.173,88.252-231.549
		c55.041-65.477,121.467-100.592,207.82-100.592c66.431,0,108.183,15.184,159.431,49.349l37.954-39.857h20.881v183.15H824.814z"/>
	<path fill="#1B1F23" d="M941.725,2931.57v-23.725h93.949v-586.46h-93.949v-23.721h314.108v23.721h-98.692v586.46h124.312
		c120.522,0,163.224-80.66,167.018-189.792h29.422l-9.491,213.517H941.725z"/>
	<path fill="#1B1F23" d="M1468.587,2931.57v-23.725h76.867l226.802-624.419h32.266l217.311,624.419h75.917v23.725h-300.824v-23.725
		h98.697l-57.89-167.967h-204.976l-58.834,167.967h96.793v23.725H1468.587z M1643.197,2716.154h185.045l-89.202-264.76
		L1643.197,2716.154z"/>
	<path fill="#1B1F23" d="M2083.393,2468.477l14.234-170.812h458.351v26.569l-367.25,583.611h158.477
		c132.857,0,160.375-60.733,183.15-180.302h26.569l-7.587,204.026h-498.208v-25.623l369.145-584.562h-102.486
		c-32.266,0-63.582,0-91.1,6.646c-55.991,13.284-98.692,49.344-114.825,140.444H2083.393z"/>
	<path fill="#1B1F23" d="M2785.442,2907.846h93.945v23.725h-309.361v-23.725h93.949v-586.46h-93.949v-23.721h309.361v23.721h-93.945
		V2907.846z"/>
	<path fill="#1B1F23" d="M3447.396,2943.905h-28.477l-402.365-603.538v567.479h93.009v23.725h-216.37v-23.725h92.994v-586.46
		h-92.994v-23.721h242.939l280.896,414.695v-390.975h-91.1v-23.721h216.365v23.721h-94.898V2943.905z"/>
	<path fill="#1B1F23" d="M4019.805,2476.068c-19.936-84.458-76.871-168.917-179.365-168.917
		c-176.495,0-167.954,162.274-167.954,301.77c0,125.266-18.027,313.159,155.632,313.159c131.898,0,116.725-99.642,116.725-197.385
		h-95.861v-23.725h297.035v23.725h-66.422c-1.908,139.499-106.293,221.109-241.045,221.109
		c-107.238,0-169.861-36.06-238.191-117.669c-49.34-58.84-67.367-137.601-67.367-212.568c0-87.307,32.258-164.173,88.248-231.549
		c55.045-65.477,121.467-100.592,207.824-100.592c66.422,0,108.184,15.184,159.431,49.349l37.944-39.857h20.881v183.15H4019.805z"/>
	<path fill="#1B1F23" d="M4369.705,2931.57v-23.725h93.936v-586.46h-93.936v-23.721h314.1v23.721h-98.697v586.46h124.32
		c120.522,0,163.229-80.66,167.027-189.792h29.403l-9.486,213.517H4369.705z"/>
	<path fill="#1B1F23" d="M4990.816,2931.57v-23.725h99.642v-586.46c-133.807-6.643-174.604,57.89-191.688,179.356h-30.366
		l10.449-203.077h543.749l10.432,203.077h-29.422c-17.064-121.467-57.881-185.999-191.688-179.356v586.46h99.642v23.725H4990.816z"
		/>
	<path fill="#1B1F23" d="M5433.034,2297.665h260.962c104.385,0,155.633,12.335,204.972,42.702
		c98.696,60.733,146.146,160.375,146.146,274.251c0,110.077-51.247,223.953-150.889,278.994
		c-72.128,39.857-153.725,37.958-232.504,37.958h-228.687v-23.725h92.99v-586.46h-92.99V2297.665z M5647.492,2907.846
		c120.521,0,203.081,7.592,243.879-116.724c20.881-63.578,23.734-139.495,23.734-200.229c0-121.468-23.734-198.334-52.193-225.853
		c-38.907-37.958-106.293-43.655-215.42-43.655V2907.846z"/>
</g>
</svg>
